<?xml version="1.0" encoding="UTF-8" standalone="no"?>
<!-- Generator: Adobe Illustrator 16.0.0, SVG Export Plug-In . SVG Version: 6.00 Build 0)  -->
<!DOCTYPE svg  PUBLIC '-//W3C//DTD SVG 1.1//EN'  'http://www.w3.org/Graphics/SVG/1.1/DTD/svg11.dtd'>
<svg id="Layer_1" xmlns="http://www.w3.org/2000/svg" xml:space="preserve" height="63.785px" viewBox="0 0 61.137 63.785" width="61.137px" version="1.1" y="0px" x="0px" xmlns:xlink="http://www.w3.org/1999/xlink" enable-background="new 0 0 61.137 63.785">
	<path id="XMLID_12_" d="m40.297 26.879c0.704 0.703 1.844 0.702 2.547-0.001l8.649-8.647 2.771 2.769c0.57 0.569 1.408 0.774 2.177 0.535 0.769-0.241 1.34-0.887 1.481-1.68l3.185-17.573c0.112-0.628-0.089-1.27-0.541-1.718-0.45-0.45-1.095-0.647-1.72-0.53l-17.485 3.275c-0.79 0.149-1.432 0.721-1.669 1.488s-0.03 1.604 0.537 2.171l2.77 2.769-8.653 8.649c-0.704 0.704-0.704 1.846 0.001 2.549l5.95 5.944z" fill="#4EA146"/>
	<path id="XMLID_11_" d="m20.839 34.906c-0.704-0.703-1.844-0.702-2.547 0.001l-8.648 8.647-2.771-2.77c-0.57-0.568-1.408-0.773-2.177-0.535-0.769 0.242-1.339 0.888-1.482 1.68l-3.183 17.575c-0.112 0.627 0.089 1.269 0.541 1.718 0.45 0.449 1.095 0.647 1.72 0.53l17.485-3.275c0.79-0.149 1.432-0.721 1.669-1.489 0.238-0.766 0.03-1.603-0.537-2.17l-2.77-2.77 8.662-8.635c0.706-0.704 0.707-1.847 0.002-2.551l-5.964-5.956z" fill="#4EA146"/>
	<path id="XMLID_10_" d="m3.214 19.854c0.143 0.793 0.714 1.438 1.482 1.68 0.769 0.239 1.606 0.034 2.177-0.535l2.771-2.769 8.649 8.647c0.703 0.703 1.843 0.704 2.546 0.001l5.952-5.944c0.705-0.703 0.705-1.845 0.001-2.549l-8.653-8.648 2.77-2.77c0.567-0.567 0.774-1.404 0.537-2.171-0.237-0.768-0.879-1.339-1.669-1.488l-17.486-3.275c-0.625-0.117-1.27 0.08-1.72 0.53-0.452 0.448-0.653 1.09-0.541 1.718l3.184 17.573z" fill="#4EA146"/>
	<path id="XMLID_9_" d="m57.922 41.93c-0.143-0.792-0.713-1.438-1.481-1.68-0.769-0.238-1.606-0.033-2.177 0.535l-2.771 2.77-8.648-8.647c-0.703-0.704-1.844-0.704-2.547-0.001l-5.964 5.956c-0.705 0.704-0.704 1.847 0.002 2.551l8.662 8.635-2.77 2.77c-0.567 0.567-0.775 1.404-0.537 2.17 0.237 0.769 0.879 1.34 1.669 1.489l17.485 3.275c0.625 0.117 1.27-0.081 1.72-0.53 0.452-0.449 0.653-1.091 0.541-1.718l-3.184-17.575z" fill="#4EA146"/>
	<path id="XMLID_8_" d="m40.297 28.879c0.704 0.703 1.844 0.702 2.547-0.001l8.649-8.647 2.771 2.769c0.57 0.569 1.408 0.774 2.177 0.535 0.769-0.241 1.34-0.887 1.481-1.68l3.185-17.573c0.112-0.628-0.089-1.27-0.541-1.718-0.45-0.45-1.095-0.647-1.72-0.53l-17.485 3.275c-0.79 0.149-1.432 0.721-1.669 1.488s-0.03 1.604 0.537 2.171l2.77 2.769-8.653 8.649c-0.704 0.704-0.704 1.846 0.001 2.549l5.95 5.944z" fill="#fff"/>
	<path id="XMLID_7_" d="m20.839 36.906c-0.704-0.703-1.844-0.702-2.547 0.001l-8.648 8.647-2.771-2.77c-0.57-0.568-1.408-0.773-2.177-0.535-0.769 0.242-1.339 0.888-1.482 1.68l-3.183 17.575c-0.112 0.627 0.089 1.269 0.541 1.718 0.45 0.449 1.095 0.647 1.72 0.53l17.485-3.275c0.79-0.149 1.432-0.721 1.669-1.489 0.238-0.766 0.03-1.603-0.537-2.17l-2.77-2.77 8.662-8.635c0.706-0.704 0.707-1.847 0.002-2.551l-5.964-5.956z" fill="#fff"/>
	<path id="XMLID_6_" d="m3.214 21.854c0.143 0.793 0.714 1.438 1.482 1.68 0.769 0.239 1.606 0.034 2.177-0.535l2.771-2.769 8.649 8.647c0.703 0.703 1.843 0.704 2.546 0.001l5.952-5.944c0.705-0.703 0.705-1.845 0.001-2.549l-8.653-8.648 2.77-2.77c0.567-0.567 0.774-1.404 0.537-2.171-0.237-0.768-0.879-1.339-1.669-1.488l-17.486-3.275c-0.625-0.117-1.27 0.08-1.72 0.53-0.452 0.448-0.653 1.09-0.541 1.718l3.184 17.573z" fill="#fff"/>
	<path id="XMLID_5_" d="m57.922 43.93c-0.143-0.792-0.713-1.438-1.481-1.68-0.769-0.238-1.606-0.033-2.177 0.535l-2.771 2.77-8.648-8.647c-0.703-0.704-1.844-0.704-2.547-0.001l-5.964 5.956c-0.705 0.704-0.704 1.847 0.002 2.551l8.662 8.635-2.77 2.77c-0.567 0.567-0.775 1.404-0.537 2.17 0.237 0.769 0.879 1.34 1.669 1.489l17.485 3.275c0.625 0.117 1.27-0.081 1.72-0.53 0.452-0.449 0.653-1.091 0.541-1.718l-3.184-17.575z" fill="#fff"/>
</svg>